<svg width="200" height="200" viewBox="0 0 200 200" fill="none" xmlns="http://www.w3.org/2000/svg">
<rect width="200" height="200" fill="white"/>
<g clip-path="url(#clip0_311_40)">
<path d="M165 91.1307L162.802 99.0635C160.981 98.0181 159.536 97.9566 158.594 97.9566C154.952 97.9566 151.937 100.97 151.937 109.456V118.988H142.643V90.2697H151.812V96.3578C153.507 91.6226 157.024 90.2697 160.604 90.2697C161.986 90.2697 163.493 90.3927 165 91.1307Z" fill="black"/>
<path d="M127.361 118.988V80H136.655V118.988H127.361Z" fill="black"/>
<path d="M123.969 90.2697V97.1572H117.815V118.988H108.52V97.1572H103.182V90.2697H108.52V80H117.815V90.2697H123.969Z" fill="black"/>
<path d="M80.7616 90.2697V102.487C80.7616 107.304 80.9082 111.219 85.1996 111.219C89.4701 111.219 89.3655 107.324 89.3655 102.487V90.2697H99.1626V106.73C99.1626 109.067 98.8276 111.076 98.1787 112.777C97.5507 114.294 96.4621 115.667 94.913 116.877C92.359 118.845 89.1143 119.849 85.1787 119.849C81.264 119.849 78.0193 118.865 75.4653 116.877C73.8953 115.667 72.7858 114.294 72.1368 112.777C71.5088 111.424 71.1948 109.415 71.1948 106.73V90.2697H80.7616Z" fill="black"/>
<path d="M67.5942 104.598C67.5942 113.884 60.686 119.726 53.3382 119.726C50.3237 119.726 46.43 118.558 44.2947 115.79V118.988H35V80H44.2947V93.406C46.43 90.7002 50.3237 89.5318 53.3382 89.5318C60.686 89.5318 67.5942 95.3123 67.5942 104.598ZM58.1739 104.598C58.1739 100.97 55.0338 97.9566 51.3913 97.9566C47.8744 97.9566 44.6087 100.908 44.6087 104.598C44.6087 108.288 47.8116 111.301 51.3913 111.301C55.0338 111.301 58.1739 108.226 58.1739 104.598Z" fill="black"/>
</g>
<defs>
<clipPath id="clip0_311_40">
<rect width="130" height="39.8284" fill="white" transform="translate(35 80)"/>
</clipPath>
</defs>
</svg>
